# xmcd
#
# Track frame offsets:
#	150
#	20464
#	38884
#	61421
#	75467
#	94525
#	112629
#	128307
#	180355
#
# Disc length: 2589 seconds
#
# Revision: 1
# Processed by: cddbd v1.4PL0 Copyright (c) Steve Scherf et al.
# Submitted via: MusicWizard 6.0.0
#
DISCID=560a1b09
DTITLE=Charlie Daniels Band - Fire On The Mountain
DYEAR=1980
DGENRE=Country
TTITLE0=Caballo Diablo
TTITLE1=Long Haired Country Boy
TTITLE2=Trudy
TTITLE3=Georgia
TTITLE4=Feeling Free
TTITLE5=The South Is Gonna Do It
TTITLE6=New York City, King Size Rosewood Bed
TTITLE7=No Place To Go
TTITLE8=Orange Blossom Special
EXTD=(p)1974 Epic Records\\\\ (c)1980 Embassy UK, JE 34365
EXTT0=
EXTT1=
EXTT2=
EXTT3=
EXTT4=
EXTT5=
EXTT6=
EXTT7=
EXTT8=
PLAYORDER=
